<?xml version="1.0" encoding="utf-8"?>
<!-- Generator: Adobe Illustrator 27.5.0, SVG Export Plug-In . SVG Version: 6.00 Build 0)  -->
<svg version="1.1" id="Layer_1" xmlns="http://www.w3.org/2000/svg" xmlns:xlink="http://www.w3.org/1999/xlink" x="0px" y="0px"
	 viewBox="0 0 273 133.4" style="enable-background:new 0 0 273 133.4;" xml:space="preserve">
<style type="text/css">
	.st0{fill:#201239;}
	.st1{fill:#FF6C00;}
	.st2{fill:#F18D22;}
	.st3{fill:#FFFFFF;}
</style>
<g>
	<g>
		<g>
			<path class="st0" d="M83.6,116.3c-1.1,0-1.9,0.6-2.3,1.2V113H80v10.2h1.3v-1c0.4,0.7,1.2,1.2,2.2,1.2c2,0,3.2-1.6,3.2-3.6
				C86.7,117.8,85.6,116.3,83.6,116.3z M83.3,122.3c-1.2,0-2-1-2-2.4c0-1.5,0.8-2.4,2-2.4c1.2,0,2,0.9,2,2.4
				C85.3,121.3,84.5,122.3,83.3,122.3z"/>
			<polygon class="st0" points="90.8,121.2 88.7,116.5 87.1,116.5 90.1,122.5 88.4,126.1 89.8,126.1 94.2,116.5 92.8,116.5 			"/>
			<path class="st0" d="M98.6,123.7h1.2c0.6,0,1-0.5,1-1v-3.6h1.7c0.8,0,1.4-0.7,1.4-1.4v-0.6h-3.1v-2.5h3.4c0.7,0,1.2-0.6,1.2-1.2
				v-0.8h-6.9V123.7z"/>
			<path class="st0" d="M109.4,115.4c-0.9,0-1.7,0.3-2.3,0.8c-0.6,0.5-0.9,1.2-1,2h2c0-0.3,0.1-0.5,0.3-0.7c0.2-0.2,0.5-0.3,0.8-0.3
				s0.7,0.1,0.8,0.3c0.2,0.2,0.3,0.5,0.3,0.8v0.3l-2.1,0.4c-0.4,0.1-0.7,0.1-1,0.2c-0.3,0.1-0.6,0.3-0.8,0.5
				c-0.3,0.2-0.5,0.4-0.6,0.7c-0.1,0.3-0.2,0.6-0.2,1c0,0.7,0.3,1.4,0.7,1.7c0.5,0.5,1.1,0.7,1.8,0.7c1,0,1.8-0.4,2.3-1.2v0.2
				c0.1,0.5,0.5,0.9,1,0.9h0.8v-5.3c0-1-0.3-1.7-0.8-2.2C111.1,115.6,110.3,115.4,109.4,115.4z M110.5,120.3c0,0.3-0.1,0.7-0.3,1
				c-0.2,0.2-0.3,0.4-0.6,0.5c-0.2,0.1-0.5,0.2-0.7,0.2c-0.3,0-0.5-0.1-0.7-0.2c-0.2-0.1-0.2-0.3-0.2-0.5c0-0.3,0.1-0.5,0.2-0.6
				c0.2-0.1,0.4-0.2,0.7-0.3l1.6-0.3V120.3z"/>
			<path class="st0" d="M115.7,112c-0.3,0-0.6,0.1-0.8,0.3c-0.3,0.2-0.4,0.6-0.4,0.9c0,0.3,0.1,0.6,0.3,0.8c0.3,0.2,0.6,0.3,0.9,0.3
				c0.3,0,0.7-0.1,0.9-0.3c0.3-0.2,0.4-0.5,0.4-0.8c0-0.3-0.1-0.7-0.4-0.9C116.3,112.1,116,112,115.7,112z"/>
			<path class="st0" d="M114.7,123.7h1.1c0.6,0,1-0.5,1-1v-7.1h-2.1V123.7z"/>
			<path class="st0" d="M120.8,116.8l-0.2-1.2h-1.8v8.1h1.1c0.6,0,1-0.5,1-1v-3.1c0-0.7,0.2-1.2,0.6-1.5c0.4-0.3,1-0.5,1.6-0.5v-2
				c-0.6,0-1.1,0.1-1.5,0.4C121.3,116.1,121,116.4,120.8,116.8z"/>
			<path class="st0" d="M132.9,120.5l-0.2,0.8l-0.2-0.8l-1.4-4.9h-1.9l-1.4,4.9l-0.2,0.8l-0.2-0.8l-1.2-4.9h-2.2l2.4,8h1.3
				c0.5,0,0.8-0.3,1-0.7l1.3-4l1.5,4.8h1.4c0.5,0,0.9-0.3,1-0.7l2.2-7.3h-2.2L132.9,120.5z"/>
			<path class="st0" d="M138.7,112c-0.3,0-0.7,0.1-0.9,0.3c-0.3,0.2-0.4,0.5-0.4,0.8c0,0.4,0.1,0.7,0.4,0.8c0.3,0.2,0.6,0.3,0.9,0.3
				s0.6-0.1,0.9-0.3c0.3-0.2,0.4-0.5,0.4-0.8c0-0.3-0.2-0.6-0.4-0.8C139.3,112.1,139.1,112,138.7,112z"/>
			<path class="st0" d="M137.6,123.7h1.1c0.6,0,1-0.5,1-1v-7.1h-2.1V123.7z"/>
			<path class="st0" d="M146.1,115.4c-0.6,0-1,0.1-1.4,0.3c-0.3,0.2-0.6,0.5-0.8,0.9l-0.2-1.1h-1.8v8.1h1.1c0.6,0,1.1-0.5,1.1-1.1
				v-3.2c0-0.7,0.1-1.1,0.4-1.5c0.3-0.3,0.6-0.5,1-0.5c0.3,0,0.7,0.2,0.8,0.4c0.2,0.2,0.3,0.6,0.3,1.1v4.8h1c0.6,0,1.1-0.5,1.1-1.1
				v-4.2c0-1-0.2-1.6-0.7-2.2C147.6,115.7,146.9,115.4,146.1,115.4z"/>
			<path class="st0" d="M156.4,116.5c-0.2-0.3-0.5-0.5-1-0.7c-0.5-0.2-0.9-0.3-1.5-0.3c-1.1,0-2,0.4-2.7,1.2c-0.7,0.8-1.1,1.8-1.1,3
				c0,0.8,0.2,1.5,0.5,2.2c0.3,0.7,0.8,1.1,1.4,1.5c0.6,0.4,1.2,0.6,1.9,0.6c1.2,0,2-0.4,2.6-1.2l0.1,0.2c0.1,0.5,0.5,0.8,1,0.8h0.9
				v-11.7h-2.1V116.5z M156.3,119.7c0,0.7-0.2,1.2-0.6,1.6c-0.4,0.4-0.8,0.6-1.4,0.6c-0.6,0-1.1-0.2-1.5-0.6c-0.4-0.4-0.6-1-0.6-1.6
				c0-0.7,0.2-1.2,0.6-1.6c0.4-0.4,0.9-0.6,1.5-0.6c0.3,0,0.7,0.1,1,0.2c0.3,0.1,0.5,0.4,0.7,0.7c0.2,0.3,0.3,0.7,0.3,1.2V119.7z"/>
			<path class="st0" d="M165.9,119.7c-0.4-0.4-1.1-0.7-2-0.8c-0.6-0.1-0.9-0.2-1.1-0.3c-0.2-0.1-0.3-0.3-0.3-0.6
				c0-0.2,0.1-0.4,0.2-0.6c0.1-0.2,0.3-0.2,0.6-0.2c0.6,0,0.9,0.3,0.9,0.9h2c0-0.8-0.3-1.4-0.8-1.9c-0.5-0.5-1.2-0.7-2.1-0.7
				c-1,0-1.7,0.2-2.2,0.7c-0.5,0.5-0.8,1.1-0.8,1.9c0,0.7,0.2,1.2,0.6,1.6c0.4,0.3,1,0.6,1.9,0.8c0.5,0.1,0.9,0.2,1.1,0.4
				c0.2,0.2,0.3,0.3,0.3,0.6c0,0.2-0.1,0.5-0.3,0.6c-0.2,0.2-0.4,0.2-0.7,0.2s-0.6-0.1-0.8-0.3c-0.1-0.1-0.1-0.1-0.2-0.2
				c-0.2-0.3-0.5-0.6-0.9-0.6H160c0.1,0.8,0.3,1.5,1.2,2c0.5,0.5,1.3,0.7,2.3,0.7c0.5,0,0.8-0.1,1.2-0.2c0.3-0.1,0.7-0.2,1-0.5
				c0.3-0.2,0.5-0.5,0.7-0.8c0.2-0.3,0.2-0.7,0.2-1.2C166.5,120.6,166.3,120.1,165.9,119.7z"/>
		</g>
		<g>
			<g>
				<path class="st0" d="M10.9,2.1c4.6,0,7.4,2.7,7.4,6.5c0,2.6-1.5,4.5-3.6,5.2c2.6,0.7,4.3,2.9,4.3,5.8c0,3.9-3,6.7-7.5,6.7H2.6
					V2.1H10.9z M10.4,12.4c2.4,0,3.8-1.4,3.8-3.4c0-2-1.4-3.4-3.9-3.4H6.7v6.7H10.4z M10.8,22.8c2.5,0,4.1-1.3,4.1-3.5
					c0-2.1-1.4-3.5-3.9-3.5H6.7v7H10.8z"/>
				<path class="st0" d="M26.8,16.8l4.3-0.6c1-0.1,1.2-0.6,1.2-1.2c0-1.4-1-2.5-3.1-2.5c-2.1,0-3.2,1.3-3.4,3l-3.6-0.8
					c0.3-2.9,2.9-5.4,7-5.4c5.1,0,7,2.9,7,6.2v8.2c0,1.5,0.2,2.5,0.2,2.7h-3.7c0-0.1-0.2-0.8-0.2-2.1c-0.8,1.3-2.4,2.6-5.1,2.6
					c-3.5,0-5.6-2.4-5.6-5C21.7,18.8,23.9,17.2,26.8,16.8z M32.2,19.4v-0.7l-4.3,0.6c-1.2,0.2-2.2,0.9-2.2,2.2
					c0,1.1,0.9,2.1,2.4,2.1C30.3,23.7,32.2,22.6,32.2,19.4z"/>
				<path class="st0" d="M42.9,20.8c0.1,1.5,1.3,2.8,3.4,2.8c1.6,0,2.5-0.9,2.5-1.9c0-0.9-0.6-1.6-1.9-1.8l-2.5-0.5
					c-2.9-0.6-4.5-2.6-4.5-4.8c0-2.9,2.7-5.3,6.1-5.3c4.6,0,6.1,3,6.4,4.6l-3.3,1c-0.1-1-0.9-2.5-3.1-2.5c-1.4,0-2.4,0.9-2.4,1.9
					c0,0.9,0.6,1.5,1.7,1.7l2.5,0.5c3.1,0.7,4.8,2.6,4.8,5c0,2.5-2,5.3-6.3,5.3c-4.8,0-6.6-3.1-6.8-5L42.9,20.8z"/>
				<path class="st0" d="M71,21.5c-0.9,2.9-3.5,5.2-7.5,5.2c-4.5,0-8.5-3.3-8.5-8.9c0-5.2,3.9-8.7,8.1-8.7c5.1,0,8.1,3.4,8.1,8.6
					c0,0.6-0.1,1.2-0.1,1.3H59c0.1,2.5,2.1,4.3,4.5,4.3c2.4,0,3.6-1.3,4.2-2.9L71,21.5z M67.2,16.2c-0.1-1.9-1.4-3.7-4.1-3.7
					c-2.5,0-3.9,1.9-4.1,3.7H67.2z"/>
				<path class="st0" d="M83.8,26.3V2.1h4.2v24.1H83.8z"/>
				<path class="st0" d="M93.4,26.3V9.7h3.8v2.1c1-1.7,3-2.6,4.9-2.6c2.2,0,4.1,1,5,2.9c1.3-2.2,3.2-2.9,5.4-2.9
					c3,0,5.9,1.9,5.9,6.3v10.8h-3.8V16.2c0-1.9-1-3.4-3.2-3.4c-2.1,0-3.4,1.6-3.4,3.7v9.8h-3.9V16.2c0-1.9-1-3.4-3.2-3.4
					c-2.1,0-3.4,1.6-3.4,3.7v9.8H93.4z"/>
				<path class="st0" d="M127.1,16.8l4.3-0.6c1-0.1,1.2-0.6,1.2-1.2c0-1.4-1-2.5-3.1-2.5c-2.1,0-3.2,1.3-3.4,3l-3.6-0.8
					c0.3-2.9,2.9-5.4,7-5.4c5.1,0,7,2.9,7,6.2v8.2c0,1.5,0.2,2.5,0.2,2.7H133c0-0.1-0.2-0.8-0.2-2.1c-0.8,1.3-2.4,2.6-5.1,2.6
					c-3.5,0-5.6-2.4-5.6-5C122.1,18.8,124.3,17.2,127.1,16.8z M132.6,19.4v-0.7l-4.3,0.6c-1.2,0.2-2.2,0.9-2.2,2.2
					c0,1.1,0.9,2.1,2.4,2.1C130.7,23.7,132.6,22.6,132.6,19.4z"/>
				<path class="st0" d="M143.6,26.2c0.3,2,1.9,3.6,4.2,3.6c3.1,0,4.7-1.6,4.7-5v-1.7c-0.7,1.3-2.4,2.4-4.8,2.4
					c-4.4,0-7.7-3.4-7.7-8.1c0-4.4,3.1-8.1,7.7-8.1c2.6,0,4.2,1.1,4.9,2.4V9.7h3.8v15c0,4.4-2.3,8.5-8.5,8.5c-4.4,0-7.5-2.7-7.9-6.1
					L143.6,26.2z M152.6,17.5c0-2.8-1.8-4.7-4.3-4.7c-2.5,0-4.3,1.8-4.3,4.7c0,2.9,1.7,4.7,4.3,4.7
					C150.9,22.2,152.6,20.3,152.6,17.5z"/>
				<path class="st0" d="M175.9,21.5c-0.9,2.9-3.5,5.2-7.5,5.2c-4.5,0-8.5-3.3-8.5-8.9c0-5.2,3.9-8.7,8.1-8.7c5.1,0,8.1,3.4,8.1,8.6
					c0,0.6-0.1,1.2-0.1,1.3h-12.1c0.1,2.5,2.1,4.3,4.5,4.3c2.4,0,3.6-1.3,4.2-2.9L175.9,21.5z M172.1,16.2c-0.1-1.9-1.4-3.7-4.1-3.7
					c-2.5,0-3.9,1.9-4.1,3.7H172.1z"/>
			</g>
		</g>
		<g>
			<path class="st0" d="M2.8,106.9V39.9h41.7v10.7H14.1v18.8h27.2v10.5H14.1v27.1H2.8z"/>
			<path class="st0" d="M59.6,37.5c4,0,7.2,3.2,7.2,7.2s-3.2,7.1-7.2,7.1c-3.9,0-7.1-3.1-7.1-7.1S55.7,37.5,59.6,37.5z M54.2,106.9
				V60.9h10.9v46.1H54.2z"/>
			<path class="st0" d="M90.3,106.9h-11V60.9H90V67c3-5.3,8.5-7.5,13.6-7.5c11.3,0,16.6,8.1,16.6,18.3v29.1h-11V79.7
				c0-5.7-2.6-10.2-9.5-10.2c-6.2,0-9.6,4.8-9.6,10.9V106.9z"/>
			<path class="st0" d="M176.2,98.5c0,4.2,0.4,7.7,0.5,8.4h-10.5c-0.2-1-0.5-4.1-0.5-6c-2.2,3.9-7,7.1-13.5,7.1
				c-13.2,0-22.1-10.4-22.1-24.3c0-13.2,9-24.1,21.9-24.1c8,0,12.1,3.7,13.5,6.6V38.4h10.7V98.5z M153.4,98.4
				c7.2,0,12.2-6,12.2-14.8s-4.9-14.3-12.1-14.3c-7.2,0-12.5,5.6-12.5,14.4S145.9,98.4,153.4,98.4z"/>
		</g>
	</g>
	<g>
		<path class="st1" d="M248.7,62l-4.6,2.5c3,3.6,2.5,4.4,4,9.1c6.5,20.2-4.5,41.8-24.7,48.4c-20.2,6.5-41.8-4.5-48.4-24.7
			c-6.5-20.2,4.5-41.8,24.7-48.4c11.2-3.6,22.8-1.8,32.1,3.9l0,0l3.2-6.8c-10.9-6.5-24.5-8.4-37.6-4.2
			c-24.1,7.8-37.3,33.7-29.5,57.8c7.8,24.1,33.7,37.3,57.8,29.5c24.1-7.8,37.3-33.7,29.5-57.8C253.6,66.4,251.5,65.8,248.7,62z"/>
		<path class="st2" d="M226,60.3l3.7-4.2c-8.2-5.1-18.5-6.8-28.4-3.6c-17.8,5.8-27.5,24.8-21.7,42.6c5.8,17.8,24.8,27.5,42.6,21.7
			c17.8-5.8,27.5-24.8,21.7-42.6c-1.2-3.8-3.1-7.3-5.4-10.3l-3.8,4.1c1.7,2.4,3.1,5,4,7.9c4.8,14.9-3.3,30.8-18.2,35.6
			c-14.9,4.8-30.8-3.3-35.6-18.2c-4.8-14.9,3.3-30.8,18.2-35.6C210.9,55.2,219.2,56.3,226,60.3z"/>
		<polygon class="st1" points="255.3,35.9 253.8,24.7 238.7,44.2 235.7,55.7 225.4,67.6 226.3,70.7 238.4,57.9 249,54 266.7,35 		
			"/>
	</g>
	<path class="st0" d="M233.1,93.4c-2.6,8.1-10.3,15.1-21.9,15.1c-13.1,0-23.8-8.8-23.8-24.5c0-14.6,11.3-24.3,23.6-24.3
		c14.9,0,23.8,9.5,23.8,24.1c0,1.8-0.1,3.4-0.2,3.6L199,87.2c0.3,7,6.1,12.1,13.2,12.1c7,0,10.2-4.1,11.8-8.7L233.1,93.4z M223,79.1
		c-0.2-5.4-4-10.3-11.9-10.3c-7.3,0-11.4,5.3-11.8,10.3H223z"/>
	<path class="st0" d="M270.3,71.7c-1.2-0.2-2.5-0.3-3.6-0.3c-8.5,0-12.4,4.9-12.4,13.5v21.9h-11V60.9h10.7v7.4
		c2.2-5,7.3-7.9,13.3-7.9c1.3,0,2.5,0.2,2.9,0.3V71.7z"/>
</g>
</svg>
